<?xml version="1.0" encoding="UTF-8"?>
<svg id="Layer_2" data-name="Layer 2" xmlns="http://www.w3.org/2000/svg" viewBox="0 0 83.37 30.19" width="90">
  <defs>
    <style>
      .cls-1 {
        fill: #231f20;
      }

      .cls-2 {
        fill: #895ae8;
      }
    </style>
  </defs>
  <g id="main">
    <g>
      <g>
        <path class="cls-2" d="M7.29,8.79l1.07,1.4h-1.23l-.68-.88c-.43.18-.91.28-1.42.28-2.07,0-3.59-1.55-3.59-4.09S2.96,1.4,5.03,1.4s3.59,1.54,3.59,4.09c0,1.47-.51,2.6-1.33,3.3ZM5.81,6.9l.77,1c.53-.5.85-1.31.85-2.4,0-1.94-1.03-3-2.4-3s-2.4,1.05-2.4,3,1.02,3,2.4,3c.26,0,.5-.04.73-.11l-1.13-1.49h1.18Z"/>
        <path class="cls-2" d="M10.13,1.51h2.84c1.85,0,2.76,1.11,2.76,2.58s-.91,2.59-2.76,2.59h-1.63v2.8h-1.2V1.51ZM12.86,5.66c1.18,0,1.66-.67,1.66-1.57s-.49-1.55-1.68-1.55h-1.51v3.12h1.53Z"/>
        <path class="cls-2" d="M20.49,9.59c-2.07,0-3.59-1.55-3.59-4.09s1.52-4.09,3.59-4.09,3.59,1.54,3.59,4.09-1.53,4.09-3.59,4.09ZM20.49,2.5c-1.37,0-2.4,1.05-2.4,3s1.02,3,2.4,3,2.4-1.05,2.4-3-1.03-3-2.4-3Z"/>
        <path class="cls-2" d="M26.79,9.48h-1.2V1.51h1.2v7.97Z"/>
        <path class="cls-2" d="M34.97,9.48h-1.1l-4.05-5.84h-.07v5.84h-1.2V1.51h1.11l4.05,5.85h.07V1.51h1.19v7.97Z"/>
        <path class="cls-2" d="M36.35,1.51h6.17v1.04h-2.49v6.93h-1.2V2.55h-2.48v-1.04Z"/>
      </g>
      <g>
        <path class="cls-1" d="M5.43,25.77c-2.65,0-4.58-2.05-4.58-5.33s1.93-5.33,4.58-5.33,4.58,2.05,4.58,5.33-1.93,5.33-4.58,5.33ZM5.43,16.29c-1.88,0-3.36,1.46-3.36,4.15s1.48,4.15,3.36,4.15,3.36-1.46,3.36-4.15-1.48-4.15-3.36-4.15Z"/>
        <path class="cls-1" d="M11.95,17.85h1.16v1.24h.14c.26-.41.73-1.34,2.25-1.34,1.97,0,3.32,1.56,3.32,4.01s-1.36,4.03-3.3,4.03c-1.5,0-2.01-.93-2.27-1.36h-.1v4.11h-1.2v-10.7ZM15.35,24.72c1.5,0,2.27-1.32,2.27-2.98s-.75-2.92-2.27-2.92-2.23,1.18-2.23,2.92.79,2.98,2.23,2.98Z"/>
        <path class="cls-1" d="M20.27,21.8c0-2.39,1.4-4.05,3.51-4.05,1.62,0,3.34.99,3.34,3.89v.51h-5.65c.06,1.67,1.02,2.57,2.43,2.57.94,0,1.64-.41,1.95-1.22l1.16.32c-.36,1.18-1.52,1.97-3.1,1.97-2.25,0-3.63-1.6-3.63-3.99ZM25.9,21.11c0-1.32-.83-2.29-2.13-2.29-1.37,0-2.22,1.08-2.3,2.29h4.43Z"/>
        <path class="cls-1" d="M30.13,25.63h-1.2v-7.78h1.16v1.22h.1c.36-.79,1.09-1.32,2.27-1.32,1.58,0,2.63.95,2.63,2.94v4.94h-1.2v-4.86c0-1.22-.67-1.95-1.78-1.95s-1.99.77-1.99,2.13v4.68Z"/>
        <path class="cls-1" d="M40.78,16.23c-1.38,0-2.29.73-2.29,1.72,0,1.11,1.24,1.52,2.01,1.72l1.05.28c1.07.28,2.92.91,2.92,2.86,0,1.68-1.36,3-3.75,3-2.23,0-3.61-1.16-3.73-2.86h1.3c.1,1.18,1.2,1.72,2.43,1.72,1.44,0,2.53-.75,2.53-1.88,0-1.03-.97-1.42-2.07-1.72l-1.28-.36c-1.62-.47-2.63-1.3-2.63-2.7,0-1.74,1.56-2.9,3.55-2.9s3.45,1.17,3.51,2.74h-1.22c-.12-1.02-1.07-1.62-2.33-1.62Z"/>
        <path class="cls-1" d="M46,21.78c0-2.43,1.42-4.03,3.53-4.03s3.53,1.6,3.53,4.03-1.42,4.01-3.53,4.01-3.53-1.6-3.53-4.01ZM51.85,21.78c0-1.56-.73-2.96-2.33-2.96s-2.33,1.4-2.33,2.96.73,2.94,2.33,2.94,2.33-1.38,2.33-2.94Z"/>
        <path class="cls-1" d="M59.77,17.85h1.2v7.78h-1.2v-1.32h-.08c-.36.79-1.13,1.42-2.31,1.42-1.46,0-2.51-.95-2.51-2.94v-4.94h1.2v4.86c0,1.13.71,1.86,1.7,1.86.89,0,2.01-.67,2.01-2.13v-4.6Z"/>
        <path class="cls-1" d="M63.14,17.85h1.16v1.18h.08c.28-.77,1.09-1.3,2.03-1.3.18,0,.49.01.63.02v1.22c-.08-.02-.41-.08-.73-.08-1.13,0-1.97.77-1.97,1.82v4.92h-1.2v-7.78Z"/>
        <path class="cls-1" d="M67.84,21.78c0-2.37,1.4-4.03,3.51-4.03,1.64,0,2.88.97,3.08,2.43h-1.2c-.18-.71-.81-1.36-1.86-1.36-1.4,0-2.33,1.16-2.33,2.92s.91,2.98,2.33,2.98c.93,0,1.64-.51,1.86-1.36h1.2c-.2,1.38-1.34,2.43-3.06,2.43-2.19,0-3.53-1.68-3.53-4.01Z"/>
        <path class="cls-1" d="M75.8,21.8c0-2.39,1.4-4.05,3.51-4.05,1.62,0,3.34.99,3.34,3.89v.51h-5.65c.06,1.67,1.02,2.57,2.43,2.57.94,0,1.64-.41,1.95-1.22l1.16.32c-.36,1.18-1.52,1.97-3.1,1.97-2.25,0-3.63-1.6-3.63-3.99ZM81.43,21.11c0-1.32-.83-2.29-2.13-2.29-1.37,0-2.22,1.08-2.31,2.29h4.43Z"/>
      </g>
      <path class="cls-1" d="M55.16,5.5c.37-.5.61-1.17.61-1.9,0-1.55-1.01-2.8-2.25-2.8s-2.25.85-2.25,2.39c0,.06.01.11.01.17h-.02s-.02,0-.02,0c0-.06.01-.11.01-.17,0-1.55-1.01-2.39-2.25-2.39s-2.25,1.25-2.25,2.8c0,.74.23,1.4.61,1.9h0s.03.04.03.04c.02.02.04.05.06.07l3.82,3.87,3.82-3.87s.04-.05.06-.07l.03-.04h0Z"/>
    </g>
  </g>
</svg>